<mxfile host="app.diagrams.net" agent="Mozilla/5.0 (Windows NT 10.0; Win64; x64) AppleWebKit/537.36 (KHTML, like Gecko) Chrome/137.0.0.0 Safari/537.36" version="27.1.6">
  <diagram name="Page-1" id="2YBvvXClWsGukQMizWep">
    <mxGraphModel dx="872" dy="439" grid="1" gridSize="10" guides="1" tooltips="1" connect="1" arrows="1" fold="1" page="1" pageScale="1" pageWidth="850" pageHeight="1100" math="0" shadow="0">
      <root>
        <object label="" Administrador="" id="0">
          <mxCell />
        </object>
        <mxCell id="1" parent="0" />
        <mxCell id="ikK4sfzXIW42bjNt9WWu-1" value="Administrador" style="shape=umlActor;verticalLabelPosition=bottom;verticalAlign=top;html=1;outlineConnect=0;" parent="1" vertex="1">
          <mxGeometry x="150" y="20" width="30" height="60" as="geometry" />
        </mxCell>
        <mxCell id="ikK4sfzXIW42bjNt9WWu-3" value="servicio" style="shape=umlLifeline;perimeter=lifelinePerimeter;whiteSpace=wrap;html=1;container=1;dropTarget=0;collapsible=0;recursiveResize=0;outlineConnect=0;portConstraint=eastwest;newEdgeStyle={&quot;curved&quot;:0,&quot;rounded&quot;:0};" parent="1" vertex="1">
          <mxGeometry x="390" y="80" width="100" height="1010" as="geometry" />
        </mxCell>
        <mxCell id="ikK4sfzXIW42bjNt9WWu-4" value="Log" style="shape=umlLifeline;perimeter=lifelinePerimeter;whiteSpace=wrap;html=1;container=1;dropTarget=0;collapsible=0;recursiveResize=0;outlineConnect=0;portConstraint=eastwest;newEdgeStyle={&quot;curved&quot;:0,&quot;rounded&quot;:0};" parent="1" vertex="1">
          <mxGeometry x="590" y="80" width="100" height="920" as="geometry" />
        </mxCell>
        <mxCell id="ikK4sfzXIW42bjNt9WWu-5" value="MailSender" style="shape=umlLifeline;perimeter=lifelinePerimeter;whiteSpace=wrap;html=1;container=1;dropTarget=0;collapsible=0;recursiveResize=0;outlineConnect=0;portConstraint=eastwest;newEdgeStyle={&quot;curved&quot;:0,&quot;rounded&quot;:0};" parent="1" vertex="1">
          <mxGeometry x="830" y="80" width="140" height="820" as="geometry" />
        </mxCell>
        <mxCell id="ikK4sfzXIW42bjNt9WWu-6" value="Template Engine" style="shape=umlLifeline;perimeter=lifelinePerimeter;whiteSpace=wrap;html=1;container=1;dropTarget=0;collapsible=0;recursiveResize=0;outlineConnect=0;portConstraint=eastwest;newEdgeStyle={&quot;curved&quot;:0,&quot;rounded&quot;:0};" parent="1" vertex="1">
          <mxGeometry x="710" y="80" width="100" height="920" as="geometry" />
        </mxCell>
        <mxCell id="ikK4sfzXIW42bjNt9WWu-9" value="" style="endArrow=none;dashed=1;html=1;rounded=0;" parent="1" edge="1">
          <mxGeometry width="50" height="50" relative="1" as="geometry">
            <mxPoint x="165" y="910" as="sourcePoint" />
            <mxPoint x="164.5" y="90" as="targetPoint" />
          </mxGeometry>
        </mxCell>
        <mxCell id="ikK4sfzXIW42bjNt9WWu-10" value="" style="endArrow=classic;html=1;rounded=0;" parent="1" target="ikK4sfzXIW42bjNt9WWu-3" edge="1">
          <mxGeometry width="50" height="50" relative="1" as="geometry">
            <mxPoint x="170" y="140" as="sourcePoint" />
            <mxPoint x="160" y="180" as="targetPoint" />
            <Array as="points">
              <mxPoint x="240" y="140" />
            </Array>
          </mxGeometry>
        </mxCell>
        <mxCell id="ikK4sfzXIW42bjNt9WWu-11" value="1: sendCreationEmail(user,password)" style="text;html=1;align=center;verticalAlign=middle;whiteSpace=wrap;rounded=0;" parent="1" vertex="1">
          <mxGeometry x="160" y="115" width="240" height="30" as="geometry" />
        </mxCell>
        <mxCell id="ikK4sfzXIW42bjNt9WWu-12" value="alt" style="shape=umlFrame;whiteSpace=wrap;html=1;pointerEvents=0;width=30;height=15;" parent="1" vertex="1">
          <mxGeometry x="100" y="150" width="870" height="310" as="geometry" />
        </mxCell>
        <mxCell id="ikK4sfzXIW42bjNt9WWu-16" value="[2: user = = null OR password = = null]" style="text;html=1;align=center;verticalAlign=middle;whiteSpace=wrap;rounded=0;" parent="1" vertex="1">
          <mxGeometry x="150" y="145" width="260" height="25" as="geometry" />
        </mxCell>
        <mxCell id="ikK4sfzXIW42bjNt9WWu-19" value="" style="endArrow=classic;html=1;rounded=0;" parent="1" source="ikK4sfzXIW42bjNt9WWu-20" target="ikK4sfzXIW42bjNt9WWu-4" edge="1">
          <mxGeometry width="50" height="50" relative="1" as="geometry">
            <mxPoint x="310" y="190" as="sourcePoint" />
            <mxPoint x="360" y="140" as="targetPoint" />
          </mxGeometry>
        </mxCell>
        <mxCell id="ikK4sfzXIW42bjNt9WWu-21" value="" style="endArrow=classic;html=1;rounded=0;entryX=0;entryY=0.5;entryDx=0;entryDy=0;" parent="1" target="ikK4sfzXIW42bjNt9WWu-20" edge="1" source="ikK4sfzXIW42bjNt9WWu-3">
          <mxGeometry width="50" height="50" relative="1" as="geometry">
            <mxPoint x="440" y="190" as="sourcePoint" />
            <mxPoint x="430" y="190" as="targetPoint" />
          </mxGeometry>
        </mxCell>
        <mxCell id="ikK4sfzXIW42bjNt9WWu-20" value="2: error(&quot;Datos incompletos&quot;)" style="text;html=1;align=center;verticalAlign=middle;whiteSpace=wrap;rounded=0;" parent="1" vertex="1">
          <mxGeometry x="460" y="160" width="160" height="20" as="geometry" />
        </mxCell>
        <mxCell id="ikK4sfzXIW42bjNt9WWu-23" value="" style="endArrow=none;dashed=1;html=1;rounded=0;exitX=0.007;exitY=0.194;exitDx=0;exitDy=0;exitPerimeter=0;entryX=0.998;entryY=0.147;entryDx=0;entryDy=0;entryPerimeter=0;" parent="1" edge="1" target="ikK4sfzXIW42bjNt9WWu-12">
          <mxGeometry width="50" height="50" relative="1" as="geometry">
            <mxPoint x="110.00000000000006" y="199.50000000000003" as="sourcePoint" />
            <mxPoint x="679" y="200" as="targetPoint" />
          </mxGeometry>
        </mxCell>
        <mxCell id="ikK4sfzXIW42bjNt9WWu-26" value="" style="endArrow=classic;html=1;rounded=0;" parent="1" source="ikK4sfzXIW42bjNt9WWu-27" edge="1">
          <mxGeometry width="50" height="50" relative="1" as="geometry">
            <mxPoint x="300" y="204" as="sourcePoint" />
            <mxPoint x="170" y="184" as="targetPoint" />
          </mxGeometry>
        </mxCell>
        <mxCell id="ikK4sfzXIW42bjNt9WWu-28" value="" style="endArrow=classic;html=1;rounded=0;entryX=1;entryY=0.5;entryDx=0;entryDy=0;" parent="1" target="ikK4sfzXIW42bjNt9WWu-27" edge="1">
          <mxGeometry width="50" height="50" relative="1" as="geometry">
            <mxPoint x="439.5" y="184" as="sourcePoint" />
            <mxPoint x="170" y="204" as="targetPoint" />
          </mxGeometry>
        </mxCell>
        <mxCell id="ikK4sfzXIW42bjNt9WWu-27" value="10: return" style="text;html=1;align=center;verticalAlign=middle;whiteSpace=wrap;rounded=0;" parent="1" vertex="1">
          <mxGeometry x="190" y="169" width="60" height="30" as="geometry" />
        </mxCell>
        <mxCell id="ikK4sfzXIW42bjNt9WWu-30" value="" style="endArrow=none;dashed=1;html=1;rounded=0;exitX=0.007;exitY=0.194;exitDx=0;exitDy=0;exitPerimeter=0;entryX=0.997;entryY=0.262;entryDx=0;entryDy=0;entryPerimeter=0;" parent="1" edge="1" target="ikK4sfzXIW42bjNt9WWu-12">
          <mxGeometry width="50" height="50" relative="1" as="geometry">
            <mxPoint x="110.00000000000006" y="240" as="sourcePoint" />
            <mxPoint x="679" y="240.5" as="targetPoint" />
          </mxGeometry>
        </mxCell>
        <mxCell id="ikK4sfzXIW42bjNt9WWu-35" value="" style="endArrow=classic;html=1;rounded=0;" parent="1" source="ikK4sfzXIW42bjNt9WWu-41" edge="1">
          <mxGeometry width="50" height="50" relative="1" as="geometry">
            <mxPoint x="442.75" y="261" as="sourcePoint" />
            <mxPoint x="642.25" y="217" as="targetPoint" />
          </mxGeometry>
        </mxCell>
        <mxCell id="ikK4sfzXIW42bjNt9WWu-42" value="" style="endArrow=classic;html=1;rounded=0;" parent="1" target="ikK4sfzXIW42bjNt9WWu-41" edge="1">
          <mxGeometry width="50" height="50" relative="1" as="geometry">
            <mxPoint x="442.75" y="217" as="sourcePoint" />
            <mxPoint x="642.75" y="261" as="targetPoint" />
          </mxGeometry>
        </mxCell>
        <mxCell id="ikK4sfzXIW42bjNt9WWu-41" value="4: error(&quot;Email invalido&quot;)" style="text;html=1;align=center;verticalAlign=middle;whiteSpace=wrap;rounded=0;" parent="1" vertex="1">
          <mxGeometry x="462.75" y="202" width="160" height="30" as="geometry" />
        </mxCell>
        <mxCell id="mvCbQ14mZv-JMP1jB0AG-1" value="[3&lt;span style=&quot;background-color: transparent; color: light-dark(rgb(0, 0, 0), rgb(255, 255, 255));&quot;&gt;: email = = null OR vacio]&lt;/span&gt;" style="text;html=1;align=center;verticalAlign=middle;whiteSpace=wrap;rounded=0;" parent="1" vertex="1">
          <mxGeometry x="90" y="202" width="180" height="20" as="geometry" />
        </mxCell>
        <mxCell id="mvCbQ14mZv-JMP1jB0AG-2" value="[5&lt;span style=&quot;background-color: transparent; color: light-dark(rgb(0, 0, 0), rgb(255, 255, 255));&quot;&gt;: exito]&lt;/span&gt;" style="text;html=1;align=center;verticalAlign=middle;whiteSpace=wrap;rounded=0;" parent="1" vertex="1">
          <mxGeometry x="60" y="243" width="140" height="20" as="geometry" />
        </mxCell>
        <mxCell id="z_D-2PTaJdzgs7cev_8R-1" value="" style="endArrow=classic;html=1;rounded=0;" edge="1" parent="1" source="z_D-2PTaJdzgs7cev_8R-3">
          <mxGeometry width="50" height="50" relative="1" as="geometry">
            <mxPoint x="298.25" y="248" as="sourcePoint" />
            <mxPoint x="168.25" y="228" as="targetPoint" />
          </mxGeometry>
        </mxCell>
        <mxCell id="z_D-2PTaJdzgs7cev_8R-2" value="" style="endArrow=classic;html=1;rounded=0;entryX=1;entryY=0.5;entryDx=0;entryDy=0;" edge="1" parent="1" target="z_D-2PTaJdzgs7cev_8R-3">
          <mxGeometry width="50" height="50" relative="1" as="geometry">
            <mxPoint x="437.75" y="228" as="sourcePoint" />
            <mxPoint x="168.25" y="248" as="targetPoint" />
          </mxGeometry>
        </mxCell>
        <mxCell id="z_D-2PTaJdzgs7cev_8R-3" value="10: return" style="text;html=1;align=center;verticalAlign=middle;whiteSpace=wrap;rounded=0;" vertex="1" parent="1">
          <mxGeometry x="188.25" y="213" width="60" height="30" as="geometry" />
        </mxCell>
        <mxCell id="z_D-2PTaJdzgs7cev_8R-7" value="" style="endArrow=classic;html=1;rounded=0;" edge="1" parent="1" target="ikK4sfzXIW42bjNt9WWu-3">
          <mxGeometry width="50" height="50" relative="1" as="geometry">
            <mxPoint x="440" y="270" as="sourcePoint" />
            <mxPoint x="500" y="220" as="targetPoint" />
            <Array as="points">
              <mxPoint x="480" y="270" />
              <mxPoint x="480" y="280" />
            </Array>
          </mxGeometry>
        </mxCell>
        <mxCell id="z_D-2PTaJdzgs7cev_8R-8" value="6: prepararContexto(locale, user, password)" style="text;html=1;align=center;verticalAlign=middle;whiteSpace=wrap;rounded=0;" vertex="1" parent="1">
          <mxGeometry x="440" y="243" width="250" height="30" as="geometry" />
        </mxCell>
        <mxCell id="z_D-2PTaJdzgs7cev_8R-9" value="" style="endArrow=classic;html=1;rounded=0;" edge="1" parent="1" source="z_D-2PTaJdzgs7cev_8R-14">
          <mxGeometry width="50" height="50" relative="1" as="geometry">
            <mxPoint x="440" y="297" as="sourcePoint" />
            <mxPoint x="759.5" y="297" as="targetPoint" />
          </mxGeometry>
        </mxCell>
        <mxCell id="z_D-2PTaJdzgs7cev_8R-10" value="" style="endArrow=classic;html=1;rounded=0;" edge="1" parent="1" source="z_D-2PTaJdzgs7cev_8R-22">
          <mxGeometry width="50" height="50" relative="1" as="geometry">
            <mxPoint x="440" y="392" as="sourcePoint" />
            <mxPoint x="900" y="395" as="targetPoint" />
          </mxGeometry>
        </mxCell>
        <mxCell id="z_D-2PTaJdzgs7cev_8R-11" value="" style="endArrow=classic;html=1;rounded=0;" edge="1" parent="1" source="z_D-2PTaJdzgs7cev_8R-13">
          <mxGeometry width="50" height="50" relative="1" as="geometry">
            <mxPoint x="300.5" y="460" as="sourcePoint" />
            <mxPoint x="170.5" y="440" as="targetPoint" />
          </mxGeometry>
        </mxCell>
        <mxCell id="z_D-2PTaJdzgs7cev_8R-12" value="" style="endArrow=classic;html=1;rounded=0;entryX=1;entryY=0.5;entryDx=0;entryDy=0;" edge="1" parent="1" target="z_D-2PTaJdzgs7cev_8R-13">
          <mxGeometry width="50" height="50" relative="1" as="geometry">
            <mxPoint x="440" y="440" as="sourcePoint" />
            <mxPoint x="170.5" y="460" as="targetPoint" />
          </mxGeometry>
        </mxCell>
        <mxCell id="z_D-2PTaJdzgs7cev_8R-13" value="10: return" style="text;html=1;align=center;verticalAlign=middle;whiteSpace=wrap;rounded=0;" vertex="1" parent="1">
          <mxGeometry x="190.5" y="425" width="60" height="30" as="geometry" />
        </mxCell>
        <mxCell id="z_D-2PTaJdzgs7cev_8R-15" value="" style="endArrow=classic;html=1;rounded=0;" edge="1" parent="1" target="z_D-2PTaJdzgs7cev_8R-14">
          <mxGeometry width="50" height="50" relative="1" as="geometry">
            <mxPoint x="440" y="297" as="sourcePoint" />
            <mxPoint x="759.5" y="297" as="targetPoint" />
          </mxGeometry>
        </mxCell>
        <mxCell id="z_D-2PTaJdzgs7cev_8R-14" value="7: process(&quot;mail/creationEmail&quot;)" style="text;html=1;align=center;verticalAlign=middle;whiteSpace=wrap;rounded=0;" vertex="1" parent="1">
          <mxGeometry x="462.75" y="282" width="190" height="30" as="geometry" />
        </mxCell>
        <mxCell id="z_D-2PTaJdzgs7cev_8R-17" value="" style="endArrow=classic;html=1;rounded=0;" edge="1" parent="1" source="z_D-2PTaJdzgs7cev_8R-18" target="ikK4sfzXIW42bjNt9WWu-3">
          <mxGeometry width="50" height="50" relative="1" as="geometry">
            <mxPoint x="760" y="319.5" as="sourcePoint" />
            <mxPoint x="440" y="319.5" as="targetPoint" />
          </mxGeometry>
        </mxCell>
        <mxCell id="z_D-2PTaJdzgs7cev_8R-19" value="" style="endArrow=classic;html=1;rounded=0;" edge="1" parent="1" target="z_D-2PTaJdzgs7cev_8R-18">
          <mxGeometry width="50" height="50" relative="1" as="geometry">
            <mxPoint x="760" y="319.5" as="sourcePoint" />
            <mxPoint x="440" y="320" as="targetPoint" />
          </mxGeometry>
        </mxCell>
        <mxCell id="z_D-2PTaJdzgs7cev_8R-18" value="content" style="text;html=1;align=center;verticalAlign=middle;whiteSpace=wrap;rounded=0;" vertex="1" parent="1">
          <mxGeometry x="490" y="305" width="60" height="30" as="geometry" />
        </mxCell>
        <mxCell id="z_D-2PTaJdzgs7cev_8R-20" value="" style="endArrow=classic;html=1;rounded=0;" edge="1" parent="1">
          <mxGeometry width="50" height="50" relative="1" as="geometry">
            <mxPoint x="440" y="357" as="sourcePoint" />
            <mxPoint x="440" y="367" as="targetPoint" />
            <Array as="points">
              <mxPoint x="480" y="357" />
              <mxPoint x="480" y="367" />
            </Array>
          </mxGeometry>
        </mxCell>
        <mxCell id="z_D-2PTaJdzgs7cev_8R-21" value="8: getMessage(&quot;email.creation.title&quot;)" style="text;html=1;align=center;verticalAlign=middle;whiteSpace=wrap;rounded=0;" vertex="1" parent="1">
          <mxGeometry x="417.75" y="335" width="250" height="30" as="geometry" />
        </mxCell>
        <mxCell id="z_D-2PTaJdzgs7cev_8R-23" value="" style="endArrow=classic;html=1;rounded=0;" edge="1" parent="1" target="z_D-2PTaJdzgs7cev_8R-22">
          <mxGeometry width="50" height="50" relative="1" as="geometry">
            <mxPoint x="440" y="392" as="sourcePoint" />
            <mxPoint x="899.5" y="392" as="targetPoint" />
          </mxGeometry>
        </mxCell>
        <mxCell id="z_D-2PTaJdzgs7cev_8R-22" value="9: sendEmail(&quot;email,subject,content&quot;)" style="text;html=1;align=center;verticalAlign=middle;whiteSpace=wrap;rounded=0;" vertex="1" parent="1">
          <mxGeometry x="460" y="380" width="250" height="30" as="geometry" />
        </mxCell>
        <mxCell id="z_D-2PTaJdzgs7cev_8R-24" value="" style="endArrow=classic;html=1;rounded=0;" edge="1" parent="1" source="z_D-2PTaJdzgs7cev_8R-25" target="ikK4sfzXIW42bjNt9WWu-3">
          <mxGeometry width="50" height="50" relative="1" as="geometry">
            <mxPoint x="899.5" y="424" as="sourcePoint" />
            <mxPoint x="439.5" y="424" as="targetPoint" />
          </mxGeometry>
        </mxCell>
        <mxCell id="z_D-2PTaJdzgs7cev_8R-26" value="" style="endArrow=classic;html=1;rounded=0;" edge="1" parent="1" target="z_D-2PTaJdzgs7cev_8R-25">
          <mxGeometry width="50" height="50" relative="1" as="geometry">
            <mxPoint x="899.5" y="424" as="sourcePoint" />
            <mxPoint x="440" y="424" as="targetPoint" />
          </mxGeometry>
        </mxCell>
        <mxCell id="z_D-2PTaJdzgs7cev_8R-25" value="ok" style="text;html=1;align=center;verticalAlign=middle;whiteSpace=wrap;rounded=0;" vertex="1" parent="1">
          <mxGeometry x="470" y="410" width="60" height="30" as="geometry" />
        </mxCell>
      </root>
    </mxGraphModel>
  </diagram>
</mxfile>
